<svg version="1.1" id="Layer_1" xmlns="http://www.w3.org/2000/svg" xmlns:xlink="http://www.w3.org/1999/xlink" x="0px" y="0px" viewBox="0 0 451.158 346.551" style="enable-background:new 0 0 451.158 346.551;" xml:space="preserve">
<g>
<g>
<path style="fill-rule:evenodd;clip-rule:evenodd;fill:#0053A5;" d="M129.268,71.688l0.696,0.008l28.002,86.567l-56.617,0.191
			L129.268,71.688z M4.378,250.965l66.68-0.232l15.51-44.39l86.99-0.274l15.585,44.291l67.75-0.223L162.516,2.976L96.49,3.192
			L4.378,250.965z"></path>
<g>
<path style="fill-rule:evenodd;clip-rule:evenodd;fill:#FFFFFF;" d="M127.054,68.72l-29.826,92.743l64.907-0.208l-29.967-92.544
				L127.054,68.72z M129.64,80.5c3.971,12.277,22.117,68.347,24.18,74.796c-6.49,0.008-41.721,0.116-48.32,0.149
				C107.607,148.971,125.695,92.801,129.64,80.5z"></path>
<path style="fill-rule:evenodd;clip-rule:evenodd;fill:#FFFFFF;" d="M94.36,0.232L0,254.016l73.222-0.24
				c0,0,14.208-40.785,15.535-44.457c3.945,0,78.692-0.241,82.646-0.274c1.343,3.689,15.585,44.366,15.585,44.366l74.299-0.233
				L164.572,0L94.36,0.232z M160.411,5.993c1.459,3.755,89.162,233.384,92.138,241.151c-7.353,0-57.447,0.174-61.284,0.174
				c-1.269-3.655-15.568-44.299-15.568-44.299l-91.268,0.315c0,0-14.216,40.776-15.493,44.382
				c-3.78,0.025-52.895,0.183-60.289,0.224c2.917-7.776,88.532-238.009,89.9-241.74C102.376,6.175,156.622,6.018,160.411,5.993z"></path>
		</g>
<g>
<g>
<g>
<path style="fill-rule:evenodd;clip-rule:evenodd;fill:#1156A3;" d="M43.653,322.006l0.099,0.008l3.78,11.639l-7.618,0.025
						L43.653,322.006z M26.85,346.154l9.011-0.05l2.064-5.944l11.68-0.016l2.114,5.918l9.111-0.016l-12.692-33.241l-8.911,0.016
						L26.85,346.154z"></path>
				</g>
<g>
<polygon style="fill-rule:evenodd;clip-rule:evenodd;fill:#1156A3;" points="85.457,312.68 56.742,312.772 56.751,320.216
						66.764,320.191 66.872,345.996 75.625,345.988 75.518,320.166 85.498,320.141 					"></polygon>
				</g>
<g>
<polygon style="fill-rule:evenodd;clip-rule:evenodd;fill:#1156A3;" points="89.485,345.954 113.841,345.855 113.824,338.386
						98.181,338.452 98.066,312.623 89.32,312.664 					"></polygon>
				</g>
<g>
<path style="fill-rule:evenodd;clip-rule:evenodd;fill:#1156A3;" d="M131.538,321.733l0.133,0.017l3.754,11.639l-7.626,0.016
						L131.538,321.733z M114.719,345.855l9.002-0.033l2.073-5.944l11.738-0.058l2.072,5.944l9.16-0.033l-12.749-33.216l-8.895,0.025
						L114.719,345.855z"></path>
				</g>
<g>
<polygon style="fill-rule:evenodd;clip-rule:evenodd;fill:#1156A3;" points="151.143,345.731 159.383,345.723 159.284,324.966
						159.391,324.982 171.145,345.681 180.157,345.648 180.007,312.374 171.751,312.407 171.851,332.891 171.751,332.891
						160.013,312.432 151.002,312.465 					"></polygon>
				</g>
<g>
<polygon style="fill-rule:evenodd;clip-rule:evenodd;fill:#1156A3;" points="212.527,312.266 183.746,312.374 183.779,319.793
						193.81,319.751 193.934,345.598 202.695,345.565 202.554,319.751 212.561,319.702 					"></polygon>
				</g>
<g>
<path style="fill-rule:evenodd;clip-rule:evenodd;fill:#1156A3;" d="M214.575,334.374c0.033,8.497,6.855,11.829,14.606,11.804
						c7.394-0.033,14.556-2.777,14.506-11.207c-0.008-6.001-4.874-8.224-9.748-9.55c-4.849-1.376-9.715-1.774-9.748-4.41
						c0.008-2.131,2.371-2.819,4.219-2.811c2.711-0.033,5.554,0.97,5.397,4.004l8.77-0.033c-0.075-7.511-6.789-10.652-13.479-10.644
						c-6.325,0.025-13.62,2.843-13.595,10.122c0.025,6.101,5.04,8.223,9.873,9.583c4.799,1.35,9.608,1.848,9.624,4.841
						c-0.008,2.395-2.669,3.349-5.372,3.349c-3.647,0.017-6.151-1.244-6.316-5.074L214.575,334.374z"></path>
				</g>
			</g>
<g>
<g>
<path style="fill-rule:evenodd;clip-rule:evenodd;fill:#E4222F;" d="M246.522,328.77c0.059,9.666,6.027,17.317,16.62,17.292
						c10.586-0.033,16.472-7.717,16.439-17.391c-0.042-9.649-6.002-17.283-16.58-17.267
						C252.375,311.437,246.489,319.122,246.522,328.77z M255.259,328.746c-0.049-4.94,2.098-9.873,7.768-9.906
						c5.587-0.025,7.809,4.916,7.825,9.831c0.017,4.966-2.138,9.915-7.734,9.939C257.473,338.602,255.276,333.678,255.259,328.746z"></path>
				</g>
<g>
<polygon style="fill-rule:evenodd;clip-rule:evenodd;fill:#E4222F;" points="284.397,345.3 308.818,345.217 308.76,337.756
						293.134,337.806 293.019,312.009 284.256,312.009 					"></polygon>
				</g>
<g>
<path style="fill-rule:evenodd;clip-rule:evenodd;fill:#E4222F;" d="M313.129,345.192l8.77-0.017l-0.174-33.274l-8.746,0.033
						L313.129,345.192z"></path>
				</g>
<g>
<path style="fill-rule:evenodd;clip-rule:evenodd;fill:#E4222F;" d="M341.288,321.053l0.108,0.008l3.771,11.622l-7.601,0.033
						L341.288,321.053z M324.502,345.175l8.952-0.058l2.114-5.96l11.738-0.009l2.039,5.944l9.185-0.033l-12.749-33.208l-8.878-0.008
						L324.502,345.175z"></path>
				</g>
			</g>
		</g>
<g>
<polygon style="fill-rule:evenodd;clip-rule:evenodd;fill:#E4222F;" points="312.871,308.312 321.037,308.287 324.237,299.6
				314.845,299.591 			"></polygon>
		</g>
<path style="fill-rule:evenodd;clip-rule:evenodd;fill:#ED1B2E;" d="M207.437,126.589c0.34,71.721,45.013,128.778,123.58,128.496
			c78.635-0.266,122.752-57.587,122.428-129.308C453.122,54.015,408.45-3.051,329.824-2.777
			C251.248-2.512,207.097,54.827,207.437,126.589z M272.452,126.374c-0.174-36.781,15.775-73.603,57.629-73.719
			c41.953-0.149,58.176,36.549,58.341,73.321c0.174,36.756-15.709,73.528-57.654,73.636
			C288.898,199.761,272.626,163.071,272.452,126.374z"></path>
<g>
<path style="fill-rule:evenodd;clip-rule:evenodd;fill:#FFFFFF;" d="M236.79,33.108c-20.989,23.584-32.519,56.791-32.345,93.489
				c0.166,36.681,11.995,69.823,33.199,93.232c22.813,25.101,55.133,38.372,93.399,38.265c38.289-0.142,70.527-13.612,93.05-38.92
				c21.03-23.534,32.552-56.734,32.387-93.398c-0.149-36.723-12.004-69.831-33.265-93.265C400.467,7.353,368.113-5.877,329.808-5.72
				C291.56-5.62,259.371,7.8,236.79,33.108z M242.137,215.809c-20.251-22.332-31.458-54.006-31.632-89.22
				c-0.166-35.239,10.768-67.029,30.82-89.536c21.387-23.949,52.017-36.69,88.516-36.831c36.565-0.108,67.269,12.468,88.929,36.259
				c20.252,22.348,31.492,54.056,31.658,89.303c0.149,35.223-10.801,66.98-30.828,89.436c-21.437,24.015-52.025,36.706-88.59,36.822
				C294.494,252.176,263.756,239.675,242.137,215.809z"></path>
<path style="fill-rule:evenodd;clip-rule:evenodd;fill:#FFFFFF;" d="M269.427,126.39c0.174,36.988,16.388,76.38,61.359,76.214
				c44.996-0.115,60.87-39.64,60.687-76.611c-0.158-36.989-16.413-76.446-61.401-76.314C285.11,49.837,269.26,89.411,269.427,126.39
				z M275.503,126.374c-0.149-34.095,14.109-70.553,54.595-70.694c40.577-0.124,55.15,36.259,55.324,70.313
				c0.149,34.012-14.1,70.477-54.678,70.643C290.25,196.743,275.668,160.377,275.503,126.374z"></path>
		</g>
<path style="fill-rule:evenodd;clip-rule:evenodd;fill:#FFD521;" d="M377.622,346.551c18.974-16.91,16.836-13.147,19.016-23.965
			c2.686-13.446-98.628-72.268-108.344-66.043c-9.127,7.328,19.414,26.046,4.651,31.169
			c-34.145-10.229-182.477-51.635-304.897,29.096c-1.475-15.576,97.294-100.742,256.171-66.821c1.435,0,2.727-1.335,2.255-2.661
			c-3.176-17.798-35.562-37.137-14.225-52.091c29.096-14.051,219.025,92.569,218.91,125.893
			C451.091,343.427,408.01,341.769,377.622,346.551z"></path>
<g>
<path style="fill-rule:evenodd;clip-rule:evenodd;fill:#FFFFFF;" d="M230.681,191.894l-0.315,0.132l-0.174,0.199
				c-4.999,3.423-7.958,7.577-8.671,12.202c-0.108,0.887-0.216,1.749-0.199,2.561c0.049,7.909,5.803,15.618,11.364,23.178
				c3.955,5.264,7.9,10.718,9.591,15.667c-53.542-10.983-105.061-9.831-153.149,3.498c-49.77,13.86-78.717,36.101-88.863,44.929
				c-6.217,5.504-16.587,15.742-15.949,22.887l0.522,6.192l5.222-3.416c51.28-33.838,112.97-50.011,183.464-48.096
				c26.858,0.738,69.268,4.692,118.333,19.456l1.186,0.348l1.136-0.398c3.382-1.152,5.529-3.125,6.391-5.753
				c0.282-0.879,0.414-1.741,0.398-2.636c-0.008-4.244-2.992-8.787-5.927-13.164c-2.122-3.075-4.791-7.121-4.808-9.168
				c0-0.306,0.059-0.564,0.158-0.762c7.652-0.638,50.383,20.865,80.59,42.293c20.45,14.432,21.901,19.381,21.951,19.878
				c-0.042,0.298-0.357,2.288-0.357,2.288c-1.028,5.248-1.028,5.248-9.118,12.244l-17.897,15.692l12.641-1.948
				c6.35-1.003,13.512-1.757,20.409-2.42c27.671-2.86,56.195-5.77,56.319-26.693c0.025-19.198-47.739-51.776-76.165-69.449
				C332.8,223.021,251.977,181.615,230.681,191.894z M374.778,257.879c53.617,33.299,72.658,54.819,72.683,63.191l0,0
				c-0.066,14.291-25.267,16.778-49.671,19.323c-2.827,0.249-5.662,0.58-8.596,0.887c8.472-7.32,9.268-8.166,10.669-15.634
				l0.447-2.388c0.099-0.381,0.2-0.912,0.191-1.542c-0.008-3.581-3.283-11.15-31.16-29.876
				c-14.971-10.088-33.233-20.698-48.817-28.482c-28.035-13.935-32.254-11.224-34.269-9.939l-0.149,0.099l-0.132,0.149
				c-2.338,1.915-3.266,4.119-3.249,6.54c0.025,4.509,3.406,9.533,6.101,13.554c1.824,2.693,4.759,7.087,4.75,8.977
				c0.008,0.141-0.033,0.298-0.05,0.39c-0.091,0.166-0.447,0.423-0.853,0.663c-49.339-14.631-91.906-18.602-118.946-19.356
				c-66.118-1.79-124.733,12.053-174.586,41.191c1.964-2.081,4.427-4.444,7.494-7.03c41.456-35.247,128.272-68.115,236.865-44.954
				l0.34,0.025l0.398-0.017c1.99-0.008,3.83-0.962,5.023-2.545c1.07-1.484,1.318-3.225,0.762-4.957l0.133,0.531
				c-1.269-7.195-6.474-14.183-11.456-20.939c-4.842-6.507-9.865-13.371-9.873-18.751c-0.025-0.48-0.017-0.945,0.058-1.343
				c0.423-2.603,2.155-4.907,5.289-7.17C248.197,192.226,313.643,219.862,374.778,257.879z"></path>
		</g>
	</g>
</g>
</svg>