<?xml version="1.0" encoding="utf-8"?>
<!-- Generator: Adobe Illustrator 19.0.0, SVG Export Plug-In . SVG Version: 6.00 Build 0)  -->
<svg version="1.1" id="Layer_1" xmlns="http://www.w3.org/2000/svg" xmlns:xlink="http://www.w3.org/1999/xlink" x="0px" y="0px"
	 viewBox="2011.5 -312.1 1269.8 768.5" style="enable-background:new 2011.5 -312.1 1269.8 768.5;" xml:space="preserve">
<style type="text/css">
	.st0{fill:#E2E5E6;}
</style>
<g>
	<g>
		<g>
			<path class="st0" d="M2940.3-59.3l98.3-10.9c0,0,0,364.1,0,408.4c0,59.9,53.1,117.6,137.1,117.6c67.7,0,105.6,0,105.6,0v-767.9
				l-341,40.7V-59.3z"/>
			<g>
				<path class="st0" d="M2714,456.4c-102.4,0-186.8-26.2-268.4-150.6L2254.8,12.7v443.7h-102.6c-68.2,0-140.7-40.1-140.7-117.8
					v-649.1h128.7c132.9,0,221.1,42.5,283,146.2l160.5,277.9v-424.1h117.4c66,0,126.2,54.6,126.2,114.8v652.1H2714z"/>
			</g>
		</g>
	</g>
</g>
</svg>
