<?xml version="1.0" encoding="UTF-8" standalone="no"?>
<svg
   xmlns:dc="http://purl.org/dc/elements/1.1/"
   xmlns:cc="http://creativecommons.org/ns#"
   xmlns:rdf="http://www.w3.org/1999/02/22-rdf-syntax-ns#"
   xmlns:svg="http://www.w3.org/2000/svg"
   xmlns="http://www.w3.org/2000/svg"
   viewBox="0 0 279.68533 279.68533"
   height="279.68533"
   width="279.68533"
   xml:space="preserve"
   id="svg2"
   version="1.1"><metadata
     id="metadata8"><rdf:RDF><cc:Work
         rdf:about=""><dc:format>image/svg+xml</dc:format><dc:type
           rdf:resource="http://purl.org/dc/dcmitype/StillImage" /></cc:Work></rdf:RDF></metadata><defs
     id="defs6"><clipPath
       id="clipPath18"
       clipPathUnits="userSpaceOnUse"><path
         id="path16"
         d="M 0,209.764 H 209.764 V 0 H 0 Z" /></clipPath></defs><g
     transform="matrix(1.3333333,0,0,-1.3333333,0,279.68533)"
     id="g10"><g
       id="g12"><g
         clip-path="url(#clipPath18)"
         id="g14"><g
           transform="translate(152.0049,52.3076)"
           id="g20"><path
             id="path22"
             style="fill:#fee702;fill-opacity:1;fill-rule:nonzero;stroke:none"
             d="m 0,0 c 6.709,0 12.147,5.438 12.147,12.147 v 80.012 c 0,6.709 -5.438,12.148 -12.147,12.148 h -94.245 c -6.708,0 -12.148,-5.439 -12.148,-12.148 V 12.147 C -106.393,5.438 -100.953,0 -94.245,0 Z" /></g><g
           transform="translate(111.1113,75.4209)"
           id="g24"><path
             id="path26"
             style="fill:#ffffff;fill-opacity:1;fill-rule:nonzero;stroke:none"
             d="m 0,0 v 0.107 c -5.408,-4.002 -12.456,-6.503 -21.107,-6.503 -22.656,0 -34.31,17.154 -34.31,33.47 0,16.316 11.654,33.47 34.31,33.47 1.414,0 2.786,-0.066 4.113,-0.195 l 0.547,4.072 c 0,0 4.75,0.388 10.315,-1.449 4.485,-1.784 8.97,-7.133 8.97,-7.133 L 1.157,54.104 23.846,54.098 C 32.228,54.206 41.519,49.449 41.463,39.938 41.435,34.93 40.92,31.076 37.382,28.288 40.267,26.213 43.206,22.737 43.206,15.459 43.206,6.163 35.874,0.284 27.052,0 Z m 18.534,20.546 -10e-4,-4.396 1.948,-0.032 c 1.585,0 2.507,0.663 2.507,2.214 0,1.549 -0.922,2.214 -2.507,2.214 0,0 -1.417,0.042 -1.947,0 M 18.21,38.554 18.208,34.716 h 1.942 c 1.434,0 2.008,0.681 2.008,1.937 0,1.22 -0.574,1.901 -2.008,1.901 z m -39.303,-0.093 c -6.849,0 -10.886,-5.551 -10.886,-11.317 0,-5.767 4.037,-11.32 10.886,-11.32 6.849,0 10.886,5.553 10.886,11.32 0,5.766 -4.037,11.317 -10.886,11.317" /></g><g
           transform="translate(114.082,126.9609)"
           id="g28"><path
             id="path30"
             style="fill:#167947;fill-opacity:1;fill-rule:nonzero;stroke:none"
             d="m 0,0 h 19.371 c 9.486,0 16.692,-3.565 16.692,-12.911 0,-4.921 -1.855,-8.345 -6.135,-10.414 4.708,-2.211 7.704,-5.778 7.704,-11.77 0,-8.703 -6.278,-13.839 -15.765,-13.839 H 0 c 6.785,6.476 10.231,15.596 10.231,24.468 C 10.231,-15.595 6.785,-6.475 0,0 m 13.53,-28.96 -0.004,-8.498 3.765,-0.062 c 3.068,0 4.851,1.285 4.851,4.28 0,2.995 -1.783,4.28 -4.851,4.28 0,0 -2.737,0.084 -3.761,0 m -0.07,17.833 -0.002,-7.633 h 3.859 c 2.855,0 3.996,1.356 3.996,3.852 0,2.426 -1.141,3.781 -3.996,3.781 z" /></g><g
           transform="translate(90.0088,133.4688)"
           id="g32"><path
             id="path34"
             style="fill:#167947;fill-opacity:1;fill-rule:nonzero;stroke:none"
             d="M 0,0 C 1.298,0 2.557,-0.061 3.775,-0.179 L 1.453,-17.487 c -0.472,0.048 -0.956,0.072 -1.453,0.072 -8.189,0 -13.018,-6.639 -13.018,-13.535 0,-6.898 4.829,-13.535 13.018,-13.535 8.19,0 13.02,6.637 13.02,13.535 0,4.533 -2.086,8.954 -5.843,11.452 L 19.941,-6.335 C 27.753,-12.343 31.727,-21.79 31.727,-30.95 31.727,-46.038 20.949,-61.9 0,-61.9 c -20.949,0 -31.727,15.862 -31.727,30.95 C -31.727,-15.863 -20.949,0 0,0" /></g><g
           transform="translate(93.4326,115.6299)"
           id="g36"><path
             id="path38"
             style="fill:#c71851;fill-opacity:1;fill-rule:nonzero;stroke:none"
             d="m 0,0 3.595,21.688 c 0,0 4.493,0.217 7.672,-1.536 3.177,-1.423 5.534,-4.455 5.534,-4.455 L 1.852,-0.63 C 1.032,-0.251 0,0 0,0" /></g><g
           transform="translate(57.7598,156.0146)"
           id="g40"><path
             id="path42"
             style="fill:#167947;fill-opacity:1;fill-rule:nonzero;stroke:none"
             d="M 0,0 C -6.367,0 -11.548,-5.181 -11.548,-11.548 V -91.56 c 0,-6.367 5.181,-11.547 11.548,-11.547 h 94.245 c 6.367,0 11.548,5.18 11.548,11.547 v 80.012 C 105.793,-5.181 100.612,0 94.245,0 Z M 94.245,-104.307 H 0 c -7.029,0 -12.748,5.718 -12.748,12.747 v 80.012 C -12.748,-4.519 -7.029,1.2 0,1.2 h 94.245 c 7.028,0 12.747,-5.719 12.747,-12.748 V -91.56 c 0,-7.029 -5.719,-12.747 -12.747,-12.747" /></g></g></g></g></svg>