<?xml version="1.0" encoding="UTF-8" standalone="no"?>
<svg
   xmlns:dc="http://purl.org/dc/elements/1.1/"
   xmlns:cc="http://creativecommons.org/ns#"
   xmlns:rdf="http://www.w3.org/1999/02/22-rdf-syntax-ns#"
   xmlns:svg="http://www.w3.org/2000/svg"
   xmlns="http://www.w3.org/2000/svg"
   viewBox="0 0 370.17868 325.73468"
   height="325.73468"
   width="370.17868"
   xml:space="preserve"
   id="svg2"
   version="1.1"><metadata
     id="metadata8"><rdf:RDF><cc:Work
         rdf:about=""><dc:format>image/svg+xml</dc:format><dc:type
           rdf:resource="http://purl.org/dc/dcmitype/StillImage" /></cc:Work></rdf:RDF></metadata><defs
     id="defs6"><clipPath
       id="clipPath18"
       clipPathUnits="userSpaceOnUse"><path
         id="path16"
         d="M 0,244.301 H 277.634 V 0 H 0 Z" /></clipPath></defs><g
     transform="matrix(1.3333333,0,0,-1.3333333,0,325.73467)"
     id="g10"><g
       id="g12"><g
         clip-path="url(#clipPath18)"
         id="g14"><g
           transform="translate(249.1855)"
           id="g20"><path
             id="path22"
             style="fill:#009159;fill-opacity:1;fill-rule:nonzero;stroke:none"
             d="m 0,0 c 15.731,0 28.448,12.729 28.448,28.447 v 187.401 c 0,15.713 -12.717,28.453 -28.448,28.453 h -220.725 c -15.737,0 -28.46,-12.74 -28.46,-28.453 V 28.447 C -249.185,12.729 -236.462,0 -220.725,0 Z" /></g><g
           transform="translate(144.8438,122.4131)"
           id="g24"><path
             id="path26"
             style="fill:#fff200;fill-opacity:1;fill-rule:nonzero;stroke:none"
             d="M 0,0 V 33.027 H 38.359 L 21.529,0.071 Z" /></g><g
           transform="translate(72.1807,11.3076)"
           id="g28"><path
             id="path30"
             style="fill:#fff200;fill-opacity:1;fill-rule:nonzero;stroke:none"
             d="m 0,0 c 8.985,0 16.263,7.284 16.263,16.286 v 66.94 C 16.263,92.234 8.985,99.511 0,99.511 h -44.233 c -9.057,0 -16.347,-7.277 -16.347,-16.285 V 16.286 C -60.58,7.284 -53.29,0 -44.233,0 Z m -28,78.162 h 11.17 V 21.94 H -28 Z" /></g><path
           id="path32"
           style="fill:#fff200;fill-opacity:1;fill-rule:nonzero;stroke:none"
           d="m 100.193,155.667 h 33.41 V 11.38 h -33.41 z" /><path
           id="path34"
           style="fill:#fff200;fill-opacity:1;fill-rule:nonzero;stroke:none"
           d="m 144.594,110.818 h 33.308 v -99.5 h -33.308 z" /><g
           transform="translate(222.0566,85.3857)"
           id="g36"><path
             id="path38"
             style="fill:#fff200;fill-opacity:1;fill-rule:nonzero;stroke:none"
             d="M 0,0 H 44.521 V 25.445 H -16.74 c -8.974,0 -16.263,-7.289 -16.263,-16.298 v -29.983 c 0,-12.92 13.058,-16.275 25.666,-16.275 h 19.636 v -11.618 h -45.302 v -25.338 h 61.236 c 8.973,0 16.288,7.278 16.288,16.287 v 29.636 c 0,8.967 -7.315,16.263 -16.288,16.263 l -28.233,0 z" /></g></g></g></g></svg>